# xmcd
#
# Track frame offsets:
#	180
#	10091
#	25597
#	40184
#	55623
#	69031
#	85883
#	102836
#	117935
#	132253
#	150138
#
# Disc length: 2226 seconds
#
# Revision: 3
# Processed by: cddbd v1.5.2PL0 Copyright (c) Steve Scherf et al.
# Submitted via: EZCDAudioConverter 6.0.2.1
#
DISCID=7008b00b
DTITLE=Tracy Byrd - The Truth About Men
DYEAR=2003
DGENRE=Country
TTITLE0=Drinkin' Bone
TTITLE1=You Feel Good
TTITLE2=How'd I Wind Up In Jamaica
TTITLE3=Tiny Town
TTITLE4=The Truth About Men
TTITLE5=Making Memories Of Us
TTITLE6=That's What Keeps Her Getting By
TTITLE7=When You Go
TTITLE8=Baby Put Your Clothes On
TTITLE9=Somewhere I Wanna Go
TTITLE10=Ten Rounds With Jose Cuervo
EXTD=
EXTT0=
EXTT1=
EXTT2=
EXTT3=
EXTT4=
EXTT5=
EXTT6=
EXTT7=
EXTT8=
EXTT9=
EXTT10=
PLAYORDER=
